<svg width="15" height="15" viewBox="0 0 15 15" fill="none" xmlns="http://www.w3.org/2000/svg">
<path d="M4.49876 12C3.67399 12 3.00667 12.675 3.00667 13.5C3.00667 14.325 3.67399 15 4.49876 15C5.32353 15 5.99835 14.325 5.99835 13.5C5.99835 12.675 5.32353 12 4.49876 12ZM0 0.750001C0 1.1625 0.337407 1.5 0.749794 1.5H1.49959L4.19884 7.1925L3.18662 9.0225C2.63927 10.0275 3.35908 11.25 4.49876 11.25H12.7465C13.1589 11.25 13.4963 10.9125 13.4963 10.5C13.4963 10.0875 13.1589 9.75 12.7465 9.75H4.49876L5.32353 8.25H10.9095C11.4718 8.25 11.9667 7.9425 12.2216 7.4775L14.9059 2.61C14.9691 2.49632 15.0015 2.3681 14.9999 2.23804C14.9984 2.10798 14.9629 1.98058 14.897 1.86845C14.8311 1.75631 14.7371 1.66334 14.6242 1.59871C14.5114 1.53409 14.3836 1.50007 14.2536 1.5H3.15663L2.65427 0.427501C2.59401 0.299481 2.49854 0.191281 2.37903 0.115571C2.25952 0.0398606 2.12092 -0.000227146 1.97946 9.68135e-07H0.749794C0.337407 9.68135e-07 0 0.337501 0 0.750001ZM11.9967 12C11.1719 12 10.5046 12.675 10.5046 13.5C10.5046 14.325 11.1719 15 11.9967 15C12.8215 15 13.4963 14.325 13.4963 13.5C13.4963 12.675 12.8215 12 11.9967 12Z" fill="white"/>
</svg>
